<svg width="672" height="716" viewBox="0 0 672 716" fill="none" xmlns="http://www.w3.org/2000/svg">
<circle cx="446" cy="286" r="226" fill="#DA6F6F" fill-opacity="0.5"/>
<circle cx="309" cy="490" r="226" fill="#5F5A4A" fill-opacity="0.5"/>
<circle cx="226" cy="226" r="226" fill="#DAA96F" fill-opacity="0.5"/>
<circle cx="227" cy="190" r="114" fill="#FFFAD0"/>
<circle cx="226" cy="190" r="143" fill="#FFFAD0" fill-opacity="0.5"/>
<circle cx="226" cy="190" r="170" fill="#FFFAD0" fill-opacity="0.25"/>
<mask id="mask0_21_595" style="mask-type:alpha" maskUnits="userSpaceOnUse" x="135" y="168" width="410" height="410">
<circle cx="340.031" cy="373.031" r="204.676" transform="rotate(5.71228 340.031 373.031)" fill="#D9D9D9"/>
</mask>
<g mask="url(#mask0_21_595)">
<rect x="156.744" y="149" width="409.351" height="81.8702" transform="rotate(5.71228 156.744 149)" fill="#3D2B26"/>
<rect x="148.595" y="230.464" width="409.351" height="81.8702" transform="rotate(5.71228 148.595 230.464)" fill="#B04D31"/>
<rect x="140.446" y="311.927" width="409.351" height="81.8702" transform="rotate(5.71228 140.446 311.927)" fill="#EE4D21"/>
<rect x="132.297" y="393.391" width="409.351" height="81.8702" transform="rotate(5.71228 132.297 393.391)" fill="#B04D31"/>
<rect x="124.149" y="474.855" width="409.351" height="81.8702" transform="rotate(5.71228 124.149 474.855)" fill="#3D2B26"/>
<ellipse cx="436.23" cy="240.723" rx="64.8139" ry="36.1593" transform="rotate(5.71228 436.23 240.723)" fill="#3D2B26"/>
<ellipse cx="238.95" cy="321.095" rx="64.8139" ry="36.1593" transform="rotate(5.71228 238.95 321.095)" fill="#B04D31"/>
<ellipse cx="443.42" cy="443.025" rx="64.8139" ry="36.1593" transform="rotate(5.71228 443.42 443.025)" fill="#B04D31"/>
</g>
</svg>
